<?xml version="1.0" encoding="iso-8859-1"?>
<!-- Generator: Adobe Illustrator 21.0.0, SVG Export Plug-In . SVG Version: 6.00 Build 0)  -->
<svg xmlns="http://www.w3.org/2000/svg" xmlns:xlink="http://www.w3.org/1999/xlink" version="1.1" x="0px" y="0px" viewBox="0 0 48 48" style="enable-background:new 0 0 48 48;" xml:space="preserve">
<g id="Layer_1">
</g>
<g id="Layer_2">
</g>
<g id="Layer_3">
	<path style="fill:#C62828;" d="M24,2C11.85,2,2,11.85,2,24c0,12.151,9.85,22,22,22c12.15,0,22-9.85,22-22C46,11.85,36.15,2,24,2z    M24,40.261c-9.565,0-16.261-7.376-16.261-16.261c0-8.884,7.376-16.261,16.261-16.261c8.884,0,16.301,7.252,16.301,16.137   C40.301,32.76,33.565,40.261,24,40.261z"/>
	<path style="fill:#C62828;" d="M10,29c0,0,1.705,8.903,12,10c10.295,1.097,15-7,15-7l-3-2c0,0-3,6-11,6   C15.336,36,12.145,32.961,10,29z"/>
	<path style="fill:#C62828;" d="M23,35c7,0,11-6,11-6l4,2c2-3,1-9,1-9h-5c0,0,0.768,7.785-8,11c-3.913,1.435-9.174,1.826-13-2   C13,31,15,35,23,35z"/>
	<path style="fill:#C62828;" d="M33,21h6c-0.224-3.873-5-8-5-8l-5,4c0,0,4,4,1,10c-1.103,2.207-3,4-7,5c-2.043,0.522-5,0-5,0   c0.276,0.109,4.087,1.522,8,0C33.442,29.106,33,21,33,21z"/>
</g>
</svg>
